# AST/ASF file generated using VICON BodyLanguage
# -----------------------------------------------
:version 1.10
:name VICON
:units
  mass 1.0
  length 0.45
  angle deg
:documentation
   .ast/.asf automatically generated from VICON data using
   VICON BodyBuilder and BodyLanguage model FoxedUp or BRILLIANT.MOD
:root
   order TX TY TZ RX RY RZ
   axis XYZ
   position 0 0 0  
   orientation 0 0 0 
:bonedata
  begin
     id 1 
     name lhipjoint
     direction 0.78388 -0.462562 0.414208 
     length 3.01181 
     axis 0 0 0  XYZ
  end
  begin
     id 2 
     name lfemur
     direction 0.34202 -0.939693 0  
     length 6.04673  
     axis 0 0 20  XYZ
    dof rx ry rz
    limits (-160.0 20.0)
           (-70.0 70.0)
           (-60.0 70.0)
  end
  begin
     id 3 
     name ltibia
     direction 0.34202 -0.939693 0   
     length 7.211   
     axis 0 0 20   XYZ
    dof rx
    limits (-10.0 170.0)
  end
  begin
     id 4 
     name lfoot
     direction 0.121887 -0.334882 0.934344   
     length 2.13567   
     axis -90 7.62852e-016 20   XYZ
    dof rx rz
    limits (-45.0 90.0)
           (-70.0 20.0)
  end
  begin
     id 5 
     name ltoes
     direction 1.53555e-011 -4.2179e-011 1   
     length 1.05957   
     axis -90 7.62852e-016 20   XYZ
    dof rx
    limits (-90.0 20.0)
  end
  begin
     id 6 
     name rhipjoint
     direction -0.769387 -0.475875 0.426129   
     length 2.92756  
     axis 0 0 0  XYZ 
  end
  begin
     id 7 
     name rfemur
     direction -0.34202 -0.939693 0   
     length 6.35468   
     axis 0 0 -20   XYZ
    dof rx ry rz
    limits (-160.0 20.0)
           (-70.0 70.0)
           (-70.0 60.0)
  end
  begin
     id 8 
     name rtibia
     direction -0.34202 -0.939693 0   
     length 7.37886   
     axis 0 0 -20   XYZ
    dof rx
    limits (-10.0 170.0)
 end
 begin
     id 9 
     name rfoot
     direction -0.101763 -0.279592 0.954711   
     length 2.21478  
     axis -90 -7.62852e-016 -20   XYZ
    dof rx rz
    limits (-45.0 90.0)
           (-20.0 70.0)
  end
  begin
     id 10 
     name rtoes
     direction -1.53494e-011 -4.21851e-011 1   
     length 1.10506   
     axis -90 -7.62852e-016 -20   XYZ
    dof rx
    limits (-90.0 20.0)
  end
  begin
     id 11 
     name lowerback
     direction 0.00747405 0.999267 0.0375481   
     length 2.13259   
     axis 0 0 0   XYZ
    dof rx ry rz
    limits (-20.0 45.0)
           (-30.0 30.0)
           (-30.0 30.0)
  end
  begin
     id 12 
     name upperback
     direction 0.00661626 0.996177 0.0871029   
     length 2.10528   
     axis 0 0 0   XYZ
    dof rx ry rz
    limits (-20.0 45.0)
           (-30.0 30.0)
           (-30.0 30.0)
  end
  begin
     id 13 
     name thorax
     direction 0.00320659 0.997679 0.0680167   
     length 2.11338   
     axis 0 0 0   XYZ
    dof rx ry rz
    limits (-20.0 45.0)
           (-30.0 30.0)
           (-30.0 30.0)
  end
  begin
     id 14 
     name lowerneck
     direction 0.0374841 0.973033 0.227602   
     length 1.42765   
     axis 0 0 0   XYZ
    dof rx ry rz
    limits (-20.0 45.0)
           (-30.0 30.0)
           (-30.0 30.0)
  end
  begin
     id 15 
     name upperneck
     direction 0.00481585 0.989155 -0.146795   
     length 1.47593   
     axis 0 0 0   XYZ
    dof rx ry rz
    limits (-20.0 45.0)
           (-30.0 30.0)
           (-30.0 30.0)
  end
  begin
     id 16
     name head
     direction -0.00292522 0.997206 -0.0746423  
     length 1.48116  
     axis 0 0 0   XYZ
    dof rx ry rz
    limits (-20.0 45.0)
           (-30.0 30.0)
           (-30.0 30.0)
  end
  begin
     id 17 
     name lclavicle
     direction 0.951444 0.305606 0.0368784  
     length 3.01855  
     axis 0 0 0   XYZ
    dof ry rz
    limits (-20.0 10.0)
           (0.0 20.0)
  end
  begin
     id 18 
     name lhumerus
     direction 1 -4.48977e-011 2.61664e-027   
     length 5.52731   
     axis 180 -30 -90   XYZ
    dof rx ry rz
    limits (-60.0 90.0)
           (-90.0 90.0)
           (-90.0 90.0)
  end
  begin
     id 19
     name lradius
     direction 1 -4.48944e-011 8.22157e-027   
     length 3.11059   
     axis 180 -30 -90   XYZ
    dof rx
    limits (-10.0 170.0)
  end
  begin
     id 20
     name lwrist
     direction 1 -4.48976e-011 1.5779e-026   
     length 1.5553   
     axis -1.15221e-014 90 90   XYZ
    dof ry
    limits (-180.0 0.0)
 end
  begin
     id 21 
     name lhand
     direction 1 -4.49025e-011 3.1558e-026   
     length 0.419626   
     axis -2.01367e-014 90 90   XYZ
    dof rx rz
    limits (-90.0 90.0)
           (-45.0 45.0)
  end
  begin
     id 22 
     name lfingers
     direction 1 -4.4904e-011 6.31161e-026   
     length 0.338313   
     axis -4.02734e-014 90 90   XYZ
    dof rx
    limits (0.0 90.0)
  end
  begin
     id 23
     name lthumb
     direction 0.707107 -6.35004e-011 0.707107   
     length 0.485752   
     axis -90 45 2.85299e-015   XYZ
    dof rx rz
    limits (-45.0 45.0)
           (-45.0 45.0)
  end
  begin
     id 24 
     name rclavicle
     direction -0.968876 0.223791 0.105816   
     length 3.04177  
     axis 0 0 0   XYZ 
    dof ry rz
    limits (-10.0 20.0)
           (-20.0 0.0)
  end
  begin
     id 25 
     name rhumerus
     direction -1 -4.48962e-011 -1.01384e-027  
     length 5.25396   
     axis 180 30 90   XYZ
    dof rx ry rz
    limits (-90.0 60.0)
           (-90.0 90.0)
           (-90.0 90.0)
  end
  begin
     id 26 
     name rradius
     direction -1 -4.48955e-011 8.88542e-027   
     length 3.10567   
     axis 180 30 90   XYZ
    dof rx
    limits (-10.0 170.0)
  end
  begin
     id 27 
     name rwrist
     direction -1 -4.48994e-011 1.5779e-026   
     length 1.55283   
     axis -1.15221e-014 -90 -90   XYZ
    dof ry
    limits (-180.0 0.0)
  end
  begin
     id 28
     name rhand
     direction -1 -4.48891e-011 3.1558e-026   
     length 0.498676   
     axis -2.01367e-014 -90 -90   XYZ
    dof rx rz
    limits (-90.0 90.0)
           (-45.0 45.0)
  end
  begin
     id 29
     name rfingers
     direction -1 -4.48972e-011 6.31161e-026   
     length 0.402045   
     axis -4.02734e-014 -90 -90   XYZ
    dof rx
    limits (0.0 90.0)
  end
  begin
     id 30
     name rthumb
     direction -0.707107 -6.34849e-011 0.707107   
     length 0.577259   
     axis -90 -45 -2.85299e-015   XYZ
    dof rx rz
    limits (-45.0 45.0)
           (-45.0 45.0)
  end
:hierarchy
  begin
    root lhipjoint rhipjoint lowerback
    lhipjoint lfemur
    lfemur ltibia
    ltibia lfoot
    lfoot ltoes
    rhipjoint rfemur
    rfemur rtibia
    rtibia rfoot
    rfoot rtoes
    lowerback upperback
    upperback thorax
    thorax lowerneck lclavicle rclavicle
    lowerneck upperneck
    upperneck head
    lclavicle lhumerus
    lhumerus lradius
    lradius lwrist
    lwrist lhand lthumb
    lhand lfingers
    rclavicle rhumerus
    rhumerus rradius
    rradius rwrist
    rwrist rhand rthumb
    rhand rfingers
  end

#!OML:ASF H:\Pregnant\Project 1\Capture day 1\Session 1\femalepreg.ASF
:FULLY-SPECIFIED
:DEGREES
92
root 4.55184 15.3927 30.4346 118.691 -87.2312 -95.7279
lowerback -15.2311 1.09011 -7.97889
upperback -8.34869 1.99037 -1.77355
thorax -0.608392 1.01738 2.90443
lowerneck -29.4319 -1.5772 0.217496
upperneck 31.0239 -4.93904 5.51474
head 16.2118 -1.2676 1.23569
rclavicle 1.14363e-014 -2.06736e-014
rhumerus -14.2646 33.776 -74.8671
rradius 67.3838
rwrist -47.0994
rhand -28.4858 -51.3626
rfingers 7.12502
rthumb -1.85512 -81.3343
lclavicle 1.14363e-014 -2.06736e-014
lhumerus -8.53215 -29.9626 55.6631
lradius 69.7346
lwrist 58.0685
lhand -34.0368 29.2991
lfingers 7.12502
lthumb -7.2151 59.1561
rfemur -49.3688 -2.69583 21.5776
rtibia 45.0243
rfoot -18.8808 -25.2955
rtoes 13.5022
lfemur -31.9653 -1.77043 -20.0632
ltibia 25.4392
lfoot -7.23845 17.665
ltoes -38.2498
93
root 4.54163 15.39 30.4311 132.063 -87.2928 -109.138
lowerback -15.2624 1.06038 -7.93053
upperback -8.34302 1.94344 -1.79967
thorax -0.577249 0.987889 2.84472
lowerneck -29.4868 -1.55424 0.24868
upperneck 31.081 -4.9238 5.49456
head 16.2494 -1.25978 1.22555
rclavicle 1.75179e-014 -3.81667e-014
rhumerus -14.1488 33.7585 -74.8193
rradius 67.328
rwrist -46.9373
rhand -28.1942 -51.2913
rfingers 7.12502
rthumb -1.57348 -81.2653
lclavicle 1.75179e-014 -3.81667e-014
lhumerus -8.47996 -29.8259 55.7433
lradius 69.5761
lwrist 57.9416
lhand -33.9555 29.3158
lfingers 7.12502
lthumb -7.13665 59.1755
rfemur -49.5595 -3.4992 22.0514
rtibia 45.3401
rfoot -18.5642 -25.8541
rtoes 13.9083
lfemur -31.6163 -1.67222 -20.3517
ltibia 25.1621
lfoot -7.10303 18.0151
ltoes -38.2025
94
root 4.52994 15.387 30.4264 145.243 -87.2056 -122.356
lowerback -15.2977 1.03374 -7.88436
upperback -8.34122 1.90072 -1.81773
thorax -0.549153 0.96094 2.79523
lowerneck -29.5705 -1.5402 0.263997
upperneck 31.1735 -4.91422 5.46434
head 16.311 -1.25662 1.21302
rclavicle 9.72802e-015 6.36111e-015
rhumerus -14.0428 33.7262 -74.7606
rradius 67.2787
rwrist -46.7635
rhand -28.0804 -51.3466
rfingers 7.12502
rthumb -1.46358 -81.3213
lclavicle 9.72802e-015 6.36111e-015
lhumerus -8.43506 -29.7047 55.8388
lradius 69.4124
lwrist 57.8384
lhand -33.863 29.326
lfingers 7.12502
lthumb -7.0473 59.1887
rfemur -49.731 -4.24908 22.5063
rtibia 45.6283
rfoot -18.0563 -26.3374
rtoes 13.9473
lfemur -31.2651 -1.57206 -20.6354
ltibia 24.8885
lfoot -6.97546 18.3644
ltoes -38.1535
95
root 4.51673 15.3838 30.4204 156.947 -86.9888 -134.097
lowerback -15.3296 1.00429 -7.85043
upperback -8.34699 1.85456 -1.822
thorax -0.531957 0.933468 2.7663
lowerneck -29.6617 -1.52404 0.266691
upperneck 31.2789 -4.89056 5.41991
head 16.3797 -1.25102 1.19976
rclavicle 8.88319e-015 0
rhumerus -13.9565 33.7064 -74.6947
rradius 67.264
rwrist -46.6628
rhand -28.0993 -51.4845
rfingers 7.12502
rthumb -1.48187 -81.4591
lclavicle 8.88319e-015 0
lhumerus -8.40921 -29.5915 55.9579
lradius 69.2397
lwrist 57.7442
lhand -33.7667 29.327
lfingers 7.12502
lthumb -6.95439 59.1927
rfemur -49.873 -4.92878 22.9219
rtibia 45.8801
rfoot -17.4813 -26.6912
rtoes 13.8377
lfemur -30.9153 -1.47569 -20.9136
ltibia 24.6236
lfoot -6.855 18.7125
ltoes -38.1149
96
root 4.50188 15.3803 30.4126 166.689 -86.657 -143.867
lowerback -15.3645 0.971812 -7.83586
upperback -8.36779 1.80503 -1.80059
thorax -0.531116 0.906156 2.77444
lowerneck -29.7645 -1.49951 0.266272
upperneck 31.4119 -4.84262 5.34304
head 16.4623 -1.24023 1.17867
rclavicle -1.7903e-014 6.04305e-014
rhumerus -13.8944 33.7294 -74.6092
rradius 67.289
rwrist -46.6401
rhand -28.3899 -51.7776
rfingers 7.12502
rthumb -1.76249 -81.7501
lclavicle -1.7903e-014 6.04305e-014
lhumerus -8.41997 -29.4846 56.1138
lradius 69.0584
lwrist 57.6733
lhand -33.6646 29.3139
lfingers 7.12502
lthumb -6.85584 59.1829
rfemur -49.9914 -5.51958 23.3047
rtibia 46.086
rfoot -16.8947 -26.8995
rtoes 13.3029
lfemur -30.5741 -1.36425 -21.1814
ltibia 24.3682
lfoot -6.73922 19.0616
ltoes -38.0955
